<svg width="17" height="17" viewBox="0 0 17 17" fill="none" xmlns="http://www.w3.org/2000/svg">
<path d="M14.6973 9.03074L10.1973 13.5307C10.0564 13.6716 9.86532 13.7508 9.66606 13.7508C9.4668 13.7508 9.27571 13.6716 9.13481 13.5307C8.99392 13.3898 8.91476 13.1987 8.91476 12.9995C8.91476 12.8002 8.99392 12.6091 9.13481 12.4682L12.3542 9.25011H3.16669C2.96777 9.25011 2.77701 9.17109 2.63636 9.03044C2.4957 8.88979 2.41669 8.69902 2.41669 8.50011C2.41669 8.3012 2.4957 8.11043 2.63636 7.96978C2.77701 7.82913 2.96777 7.75011 3.16669 7.75011H12.3542L9.13606 4.53011C8.99517 4.38921 8.91601 4.19812 8.91601 3.99886C8.91601 3.7996 8.99517 3.60851 9.13606 3.46761C9.27696 3.32671 9.46805 3.24756 9.66731 3.24756C9.86657 3.24756 10.0577 3.32671 10.1986 3.46761L14.6986 7.96761C14.7685 8.03738 14.824 8.12028 14.8618 8.21155C14.8996 8.30281 14.919 8.40065 14.9188 8.49943C14.9187 8.59822 14.8991 8.69601 14.8611 8.78718C14.8231 8.87836 14.7674 8.96113 14.6973 9.03074Z" fill="#6B7280"/>
</svg>
