<svg xmlns="http://www.w3.org/2000/svg" width="20" height="16" viewBox="0 0 20 16" fill="none">
<path d="M19.375 8C19.375 8.29837 19.2565 8.58452 19.0455 8.79549C18.8345 9.00647 18.5484 9.125 18.25 9.125H4.46875L9.29875 13.9541C9.5101 14.1654 9.62883 14.4521 9.62883 14.7509C9.62883 15.0498 9.5101 15.3365 9.29875 15.5478C9.08741 15.7592 8.80076 15.8779 8.50188 15.8779C8.20299 15.8779 7.91635 15.7592 7.705 15.5478L0.955002 8.79781C0.850122 8.6933 0.766906 8.5691 0.710124 8.43236C0.653343 8.29561 0.624115 8.149 0.624115 8.00094C0.624115 7.85287 0.653343 7.70626 0.710124 7.56952C0.766906 7.43277 0.850122 7.30858 0.955002 7.20406L7.705 0.454062C7.80965 0.349414 7.93388 0.266404 8.07061 0.209769C8.20734 0.153135 8.35388 0.123985 8.50188 0.123985C8.64987 0.123985 8.79642 0.153135 8.93314 0.209769C9.06987 0.266404 9.1941 0.349414 9.29875 0.454062C9.4034 0.558709 9.48641 0.682943 9.54304 0.819671C9.59968 0.956399 9.62883 1.10294 9.62883 1.25094C9.62883 1.39893 9.59968 1.54547 9.54304 1.6822C9.48641 1.81893 9.4034 1.94316 9.29875 2.04781L4.46875 6.875H18.25C18.5484 6.875 18.8345 6.99353 19.0455 7.2045C19.2565 7.41548 19.375 7.70163 19.375 8Z" fill="currentColor"/>
</svg>
