<svg xmlns="http://www.w3.org/2000/svg" width="16" height="16" viewBox="0 0 16 16" fill="none">
  <path d="M14.0306 11.5306L11.0306 14.5306C10.8897 14.6715 10.6986 14.7507 10.4994 14.7507C10.3001 14.7507 10.109 14.6715 9.96813 14.5306C9.82723 14.3897 9.74807 14.1986 9.74807 13.9994C9.74807 13.8001 9.82723 13.609 9.96813 13.4681L11.6875 11.75H4.5C4.30109 11.75 4.11032 11.671 3.96967 11.5303C3.82902 11.3897 3.75 11.1989 3.75 11V2C3.75 1.80109 3.82902 1.61032 3.96967 1.46967C4.11032 1.32902 4.30109 1.25 4.5 1.25C4.69891 1.25 4.88968 1.32902 5.03033 1.46967C5.17098 1.61032 5.25 1.80109 5.25 2V10.25H11.6875L9.9675 8.53063C9.89774 8.46086 9.8424 8.37804 9.80464 8.28689C9.76688 8.19573 9.74745 8.09804 9.74745 7.99937C9.74745 7.90071 9.76688 7.80302 9.80464 7.71186C9.8424 7.62071 9.89774 7.53789 9.9675 7.46812C10.0373 7.39836 10.1201 7.34302 10.2112 7.30526C10.3024 7.26751 10.4001 7.24807 10.4987 7.24807C10.5974 7.24807 10.6951 7.26751 10.7863 7.30526C10.8774 7.34302 10.9602 7.39836 11.03 7.46812L14.03 10.4681C14.1 10.5378 14.1555 10.6205 14.1934 10.7117C14.2313 10.8028 14.2508 10.9005 14.2509 10.9992C14.251 11.098 14.2315 11.1957 14.1937 11.2869C14.1559 11.3781 14.1005 11.4609 14.0306 11.5306Z" fill="#6B7280"/>
</svg>