<svg xmlns="http://www.w3.org/2000/svg" width="16" height="17" viewBox="0 0 16 17" fill="none">
  <path d="M14.0306 9.03061L9.53063 13.5306C9.38973 13.6715 9.19863 13.7507 8.99938 13.7507C8.80012 13.7507 8.60902 13.6715 8.46813 13.5306C8.32723 13.3897 8.24807 13.1986 8.24807 12.9994C8.24807 12.8001 8.32723 12.609 8.46813 12.4681L11.6875 9.24999H2.5C2.30109 9.24999 2.11032 9.17097 1.96967 9.03032C1.82902 8.88967 1.75 8.6989 1.75 8.49999C1.75 8.30108 1.82902 8.11031 1.96967 7.96966C2.11032 7.829 2.30109 7.74999 2.5 7.74999H11.6875L8.46937 4.52999C8.32848 4.38909 8.24932 4.19799 8.24932 3.99874C8.24932 3.79948 8.32848 3.60838 8.46937 3.46749C8.61027 3.32659 8.80137 3.24744 9.00062 3.24744C9.19988 3.24744 9.39098 3.32659 9.53187 3.46749L14.0319 7.96749C14.1018 8.03726 14.1573 8.12016 14.1951 8.21142C14.2329 8.30269 14.2523 8.40052 14.2522 8.49931C14.252 8.59809 14.2324 8.69588 14.1944 8.78706C14.1564 8.87824 14.1007 8.96101 14.0306 9.03061Z" fill="#004DBC"/>
</svg>