<svg xmlns="http://www.w3.org/2000/svg" width="16" height="17" viewBox="0 0 16 17" fill="none">
  <path d="M13 2.25537H11.75V2.00537C11.75 1.80646 11.671 1.61569 11.5303 1.47504C11.3897 1.33439 11.1989 1.25537 11 1.25537C10.8011 1.25537 10.6103 1.33439 10.4697 1.47504C10.329 1.61569 10.25 1.80646 10.25 2.00537V2.25537H5.75V2.00537C5.75 1.80646 5.67098 1.61569 5.53033 1.47504C5.38968 1.33439 5.19891 1.25537 5 1.25537C4.80109 1.25537 4.61032 1.33439 4.46967 1.47504C4.32902 1.61569 4.25 1.80646 4.25 2.00537V2.25537H3C2.66848 2.25537 2.35054 2.38707 2.11612 2.62149C1.8817 2.85591 1.75 3.17385 1.75 3.50537V13.5054C1.75 13.8369 1.8817 14.1548 2.11612 14.3893C2.35054 14.6237 2.66848 14.7554 3 14.7554H13C13.3315 14.7554 13.6495 14.6237 13.8839 14.3893C14.1183 14.1548 14.25 13.8369 14.25 13.5054V3.50537C14.25 3.17385 14.1183 2.85591 13.8839 2.62149C13.6495 2.38707 13.3315 2.25537 13 2.25537ZM4.25 3.75537C4.25 3.95428 4.32902 4.14505 4.46967 4.2857C4.61032 4.42635 4.80109 4.50537 5 4.50537C5.19891 4.50537 5.38968 4.42635 5.53033 4.2857C5.67098 4.14505 5.75 3.95428 5.75 3.75537H10.25C10.25 3.95428 10.329 4.14505 10.4697 4.2857C10.6103 4.42635 10.8011 4.50537 11 4.50537C11.1989 4.50537 11.3897 4.42635 11.5303 4.2857C11.671 4.14505 11.75 3.95428 11.75 3.75537H12.75V5.25537H3.25V3.75537H4.25ZM3.25 13.2554V6.75537H12.75V13.2554H3.25Z" fill="currentColor"/>
</svg>