<svg xmlns="http://www.w3.org/2000/svg" width="16" height="17" viewBox="0 0 16 17" fill="none">
  <path d="M13.5306 5.31668L10.0306 1.81668C9.96097 1.74694 9.87826 1.69162 9.78721 1.65387C9.69616 1.61612 9.59856 1.59668 9.5 1.59668H3.5C3.16848 1.59668 2.85054 1.72838 2.61612 1.9628C2.3817 2.19722 2.25 2.51516 2.25 2.84668V13.8467C2.25 14.1782 2.3817 14.4961 2.61612 14.7306C2.85054 14.965 3.16848 15.0967 3.5 15.0967H12.5C12.8315 15.0967 13.1495 14.965 13.3839 14.7306C13.6183 14.4961 13.75 14.1782 13.75 13.8467V5.84668C13.75 5.64792 13.6711 5.4573 13.5306 5.31668ZM10 3.90918L11.4375 5.34668H10V3.90918ZM3.75 13.5967V3.09668H8.5V6.09668C8.5 6.29559 8.57902 6.48636 8.71967 6.62701C8.86032 6.76766 9.05109 6.84668 9.25 6.84668H12.25V13.5967H3.75ZM10.75 8.59668C10.75 8.79559 10.671 8.98636 10.5303 9.12701C10.3897 9.26766 10.1989 9.34668 10 9.34668H6C5.80109 9.34668 5.61032 9.26766 5.46967 9.12701C5.32902 8.98636 5.25 8.79559 5.25 8.59668C5.25 8.39777 5.32902 8.207 5.46967 8.06635C5.61032 7.9257 5.80109 7.84668 6 7.84668H10C10.1989 7.84668 10.3897 7.9257 10.5303 8.06635C10.671 8.207 10.75 8.39777 10.75 8.59668ZM10.75 11.0967C10.75 11.2956 10.671 11.4864 10.5303 11.627C10.3897 11.7677 10.1989 11.8467 10 11.8467H6C5.80109 11.8467 5.61032 11.7677 5.46967 11.627C5.32902 11.4864 5.25 11.2956 5.25 11.0967C5.25 10.8978 5.32902 10.707 5.46967 10.5663C5.61032 10.4257 5.80109 10.3467 6 10.3467H10C10.1989 10.3467 10.3897 10.4257 10.5303 10.5663C10.671 10.707 10.75 10.8978 10.75 11.0967Z" fill="#004DBC"/>
</svg>