<svg xmlns="http://www.w3.org/2000/svg" width="16" height="16" viewBox="0 0 16 16" fill="none">
  <path d="M14.5306 3.46937L12.5306 1.46937C12.4609 1.39945 12.3782 1.34397 12.287 1.30612C12.1958 1.26827 12.0981 1.24878 11.9994 1.24878C11.9007 1.24878 11.8029 1.26827 11.7118 1.30612C11.6206 1.34397 11.5378 1.39945 11.4681 1.46937L5.46812 7.46937C5.32797 7.61035 5.24951 7.8012 5.25 8V10C5.25 10.1989 5.32902 10.3897 5.46967 10.5303C5.61032 10.671 5.80109 10.75 6 10.75H8C8.09852 10.7501 8.19609 10.7307 8.28714 10.6931C8.37818 10.6555 8.46092 10.6002 8.53063 10.5306L14.5306 4.53062C14.6004 4.46097 14.6557 4.37825 14.6934 4.2872C14.7312 4.19615 14.7506 4.09856 14.7506 4C14.7506 3.90143 14.7312 3.80384 14.6934 3.71279C14.6557 3.62174 14.6004 3.53903 14.5306 3.46937ZM12 3.0625L12.9375 4L12.25 4.6875L11.3125 3.75L12 3.0625ZM7.6875 9.25H6.75V8.3125L10.25 4.8125L11.1875 5.75L7.6875 9.25ZM14.25 8.78562V13C14.25 13.3315 14.1183 13.6495 13.8839 13.8839C13.6495 14.1183 13.3315 14.25 13 14.25H3C2.66848 14.25 2.35054 14.1183 2.11612 13.8839C1.8817 13.6495 1.75 13.3315 1.75 13V3C1.75 2.66848 1.8817 2.35053 2.11612 2.11611C2.35054 1.88169 2.66848 1.75 3 1.75H7.21438C7.41329 1.75 7.60405 1.82901 7.74471 1.96967C7.88536 2.11032 7.96438 2.30108 7.96438 2.5C7.96438 2.69891 7.88536 2.88967 7.74471 3.03033C7.60405 3.17098 7.41329 3.25 7.21438 3.25H3.25V12.75H12.75V8.78562C12.75 8.58671 12.829 8.39594 12.9697 8.25529C13.1103 8.11464 13.3011 8.03562 13.5 8.03562C13.6989 8.03562 13.8897 8.11464 14.0303 8.25529C14.171 8.39594 14.25 8.58671 14.25 8.78562Z" fill="currentColor"/>
</svg>