<svg width="48" height="48" viewBox="0 0 48 48" fill="none" xmlns="http://www.w3.org/2000/svg">
<path d="M40.0612 12.4388L32.5613 4.93875C32.4218 4.7995 32.2564 4.68908 32.0743 4.6138C31.8922 4.53851 31.697 4.49985 31.5 4.5H16.5C15.7044 4.5 14.9413 4.81607 14.3787 5.37868C13.8161 5.94129 13.5 6.70435 13.5 7.5V10.5H10.5C9.70435 10.5 8.94129 10.8161 8.37868 11.3787C7.81607 11.9413 7.5 12.7044 7.5 13.5V40.5C7.5 41.2957 7.81607 42.0587 8.37868 42.6213C8.94129 43.1839 9.70435 43.5 10.5 43.5H31.5C32.2956 43.5 33.0587 43.1839 33.6213 42.6213C34.1839 42.0587 34.5 41.2957 34.5 40.5V37.5H37.5C38.2956 37.5 39.0587 37.1839 39.6213 36.6213C40.1839 36.0587 40.5 35.2956 40.5 34.5V13.5C40.5002 13.303 40.4615 13.1078 40.3862 12.9257C40.3109 12.7436 40.2005 12.5782 40.0612 12.4388ZM31.5 40.5H10.5V13.5H24.8794L31.5 20.1206V35.97C31.5 35.9812 31.5 35.9906 31.5 36C31.5 36.0094 31.5 36.0188 31.5 36.03V40.5ZM37.5 34.5H34.5V19.5C34.5002 19.303 34.4615 19.1078 34.3862 18.9257C34.3109 18.7436 34.2005 18.5782 34.0613 18.4387L26.5613 10.9388C26.4218 10.7995 26.2564 10.6891 26.0743 10.6138C25.8922 10.5385 25.697 10.4998 25.5 10.5H16.5V7.5H30.8794L37.5 14.1206V34.5ZM27 28.5C27 28.8978 26.842 29.2794 26.5607 29.5607C26.2794 29.842 25.8978 30 25.5 30H16.5C16.1022 30 15.7206 29.842 15.4393 29.5607C15.158 29.2794 15 28.8978 15 28.5C15 28.1022 15.158 27.7206 15.4393 27.4393C15.7206 27.158 16.1022 27 16.5 27H25.5C25.8978 27 26.2794 27.158 26.5607 27.4393C26.842 27.7206 27 28.1022 27 28.5ZM27 34.5C27 34.8978 26.842 35.2794 26.5607 35.5607C26.2794 35.842 25.8978 36 25.5 36H16.5C16.1022 36 15.7206 35.842 15.4393 35.5607C15.158 35.2794 15 34.8978 15 34.5C15 34.1022 15.158 33.7206 15.4393 33.4393C15.7206 33.158 16.1022 33 16.5 33H25.5C25.8978 33 26.2794 33.158 26.5607 33.4393C26.842 33.7206 27 34.1022 27 34.5Z" fill="currentColor"/>
</svg>
