<svg xmlns="http://www.w3.org/2000/svg" width="16" height="16" viewBox="0 0 16 16" fill="none">
  <path d="M14 9.675L11.0569 8.35563L11.0456 8.35063C10.8543 8.26815 10.6454 8.23495 10.4379 8.25406C10.2305 8.27316 10.0312 8.34397 9.85813 8.46C9.83388 8.47624 9.81051 8.49376 9.78813 8.5125L8.39375 9.7C7.58125 9.25937 6.74188 8.42688 6.30063 7.62438L7.49188 6.20813C7.51103 6.18527 7.52877 6.16126 7.545 6.13625C7.65799 5.96385 7.72659 5.76618 7.74469 5.56084C7.76279 5.35551 7.72984 5.14889 7.64875 4.95938C7.64683 4.95575 7.64516 4.95199 7.64375 4.94813L6.325 2C6.21676 1.75345 6.03201 1.54831 5.7981 1.41492C5.5642 1.28153 5.29357 1.22699 5.02625 1.25938C4.11899 1.37856 3.28612 1.82392 2.68322 2.51228C2.08031 3.20065 1.74859 4.08494 1.75 5C1.75 10.1006 5.89938 14.25 11 14.25C11.9151 14.2514 12.7994 13.9197 13.4877 13.3168C14.1761 12.7139 14.6214 11.881 14.7406 10.9738C14.773 10.7064 14.7185 10.4358 14.5851 10.2019C14.4517 9.968 14.2466 9.78325 14 9.675ZM11 12.75C8.94534 12.7475 6.97554 11.9302 5.52267 10.4773C4.0698 9.02447 3.25249 7.05467 3.25 5C3.24857 4.48218 3.42437 3.97947 3.74818 3.57539C4.07199 3.1713 4.52432 2.89019 5.03 2.77875L6.20625 5.40375L5.00875 6.83C4.9894 6.85307 4.97145 6.87728 4.955 6.9025C4.83697 7.08285 4.76758 7.29065 4.75356 7.50573C4.73954 7.72081 4.78138 7.93586 4.875 8.13C5.46375 9.335 6.67688 10.54 7.89438 11.13C8.08982 11.2227 8.30595 11.263 8.52165 11.2471C8.73736 11.2312 8.94525 11.1597 9.125 11.0394C9.14917 11.0231 9.17234 11.0053 9.19438 10.9862L10.5963 9.79438L13.2213 10.97C13.1098 11.4757 12.8287 11.928 12.4246 12.2518C12.0205 12.5756 11.5178 12.7514 11 12.75Z" fill="#9CA3AF"/>
</svg>