<svg width="16" height="16" viewBox="0 0 16 16" fill="none" xmlns="http://www.w3.org/2000/svg">
<path d="M9.75 5.75C9.75 5.55109 9.82902 5.36032 9.96967 5.21967C10.1103 5.07902 10.3011 5 10.5 5H14.5C14.6989 5 14.8897 5.07902 15.0303 5.21967C15.171 5.36032 15.25 5.55109 15.25 5.75C15.25 5.94891 15.171 6.13968 15.0303 6.28033C14.8897 6.42098 14.6989 6.5 14.5 6.5H10.5C10.3011 6.5 10.1103 6.42098 9.96967 6.28033C9.82902 6.13968 9.75 5.94891 9.75 5.75ZM14.5 7.5H10.5C10.3011 7.5 10.1103 7.57902 9.96967 7.71967C9.82902 7.86032 9.75 8.05109 9.75 8.25C9.75 8.44891 9.82902 8.63968 9.96967 8.78033C10.1103 8.92098 10.3011 9 10.5 9H14.5C14.6989 9 14.8897 8.92098 15.0303 8.78033C15.171 8.63968 15.25 8.44891 15.25 8.25C15.25 8.05109 15.171 7.86032 15.0303 7.71967C14.8897 7.57902 14.6989 7.5 14.5 7.5ZM14.5 10H5C4.80109 10 4.61032 10.079 4.46967 10.2197C4.32902 10.3603 4.25 10.5511 4.25 10.75C4.25 10.9489 4.32902 11.1397 4.46967 11.2803C4.61032 11.421 4.80109 11.5 5 11.5H14.5C14.6989 11.5 14.8897 11.421 15.0303 11.2803C15.171 11.1397 15.25 10.9489 15.25 10.75C15.25 10.5511 15.171 10.3603 15.0303 10.2197C14.8897 10.079 14.6989 10 14.5 10ZM14.5 12.5H5C4.80109 12.5 4.61032 12.579 4.46967 12.7197C4.32902 12.8603 4.25 13.0511 4.25 13.25C4.25 13.4489 4.32902 13.6397 4.46967 13.7803C4.61032 13.921 4.80109 14 5 14H14.5C14.6989 14 14.8897 13.921 15.0303 13.7803C15.171 13.6397 15.25 13.4489 15.25 13.25C15.25 13.0511 15.171 12.8603 15.0303 12.7197C14.8897 12.579 14.6989 12.5 14.5 12.5ZM6 9C6.19891 9 6.38968 8.92098 6.53033 8.78033C6.67098 8.63968 6.75 8.44891 6.75 8.25C6.75 8.05109 6.67098 7.86032 6.53033 7.71967C6.38968 7.57902 6.19891 7.5 6 7.5H5.75V4.25H7.25V4.5C7.25 4.69891 7.32902 4.88968 7.46967 5.03033C7.61032 5.17098 7.80109 5.25 8 5.25C8.19891 5.25 8.38968 5.17098 8.53033 5.03033C8.67098 4.88968 8.75 4.69891 8.75 4.5V3.5C8.75 3.30109 8.67098 3.11032 8.53033 2.96967C8.38968 2.82902 8.19891 2.75 8 2.75H2C1.80109 2.75 1.61032 2.82902 1.46967 2.96967C1.32902 3.11032 1.25 3.30109 1.25 3.5V4.5C1.25 4.69891 1.32902 4.88968 1.46967 5.03033C1.61032 5.17098 1.80109 5.25 2 5.25C2.19891 5.25 2.38968 5.17098 2.53033 5.03033C2.67098 4.88968 2.75 4.69891 2.75 4.5V4.25H4.25V7.5H4C3.80109 7.5 3.61032 7.57902 3.46967 7.71967C3.32902 7.86032 3.25 8.05109 3.25 8.25C3.25 8.44891 3.32902 8.63968 3.46967 8.78033C3.61032 8.92098 3.80109 9 4 9H6Z" fill="currentColor"/>
</svg>
