<svg width="16" height="16" viewBox="0 0 16 16" fill="none" xmlns="http://www.w3.org/2000/svg">
<path d="M13.25 3.5V5.5C13.25 5.69891 13.171 5.88968 13.0303 6.03033C12.8897 6.17098 12.6989 6.25 12.5 6.25C12.3011 6.25 12.1103 6.17098 11.9697 6.03033C11.829 5.88968 11.75 5.69891 11.75 5.5V4.25H8.75V11.75H10C10.1989 11.75 10.3897 11.829 10.5303 11.9697C10.671 12.1103 10.75 12.3011 10.75 12.5C10.75 12.6989 10.671 12.8897 10.5303 13.0303C10.3897 13.171 10.1989 13.25 10 13.25H6C5.80109 13.25 5.61032 13.171 5.46967 13.0303C5.32902 12.8897 5.25 12.6989 5.25 12.5C5.25 12.3011 5.32902 12.1103 5.46967 11.9697C5.61032 11.829 5.80109 11.75 6 11.75H7.25V4.25H4.25V5.5C4.25 5.69891 4.17098 5.88968 4.03033 6.03033C3.88968 6.17098 3.69891 6.25 3.5 6.25C3.30109 6.25 3.11032 6.17098 2.96967 6.03033C2.82902 5.88968 2.75 5.69891 2.75 5.5V3.5C2.75 3.30109 2.82902 3.11032 2.96967 2.96967C3.11032 2.82902 3.30109 2.75 3.5 2.75H12.5C12.6989 2.75 12.8897 2.82902 13.0303 2.96967C13.171 3.11032 13.25 3.30109 13.25 3.5Z" fill="currentColor"/>
</svg>
