<svg width="16" height="16" viewBox="0 0 16 16" fill="none" xmlns="http://www.w3.org/2000/svg">
<path d="M15.0163 11.6313L9.55071 2.13938C9.39241 1.86864 9.16597 1.64407 8.89392 1.488C8.62188 1.33193 8.31372 1.24982 8.00009 1.24982C7.68646 1.24982 7.3783 1.33193 7.10625 1.488C6.83421 1.64407 6.60777 1.86864 6.44946 2.13938L0.983838 11.6313C0.830226 11.894 0.749268 12.1929 0.749268 12.4972C0.749268 12.8015 0.830226 13.1004 0.983838 13.3631C1.14039 13.6352 1.36652 13.8608 1.63901 14.0166C1.91151 14.1725 2.22056 14.253 2.53446 14.25H13.4657C13.7794 14.2528 14.0882 14.1721 14.3605 14.0163C14.6327 13.8605 14.8586 13.635 15.0151 13.3631C15.1689 13.1005 15.2501 12.8017 15.2503 12.4974C15.2505 12.193 15.1698 11.8941 15.0163 11.6313ZM13.7163 12.6125C13.6909 12.6558 13.6543 12.6915 13.6103 12.7157C13.5663 12.7399 13.5165 12.7517 13.4663 12.75H2.53446C2.48427 12.7517 2.43454 12.7399 2.39054 12.7157C2.34653 12.6915 2.30988 12.6558 2.28446 12.6125C2.2629 12.5775 2.25149 12.5371 2.25149 12.4959C2.25149 12.4548 2.2629 12.4144 2.28446 12.3794L7.75009 2.88751C7.77715 2.84585 7.8142 2.81161 7.85786 2.78791C7.90152 2.76421 7.95041 2.7518 8.00009 2.7518C8.04977 2.7518 8.09866 2.76421 8.14232 2.78791C8.18598 2.81161 8.22303 2.84585 8.25009 2.88751L13.7151 12.3794C13.7368 12.4143 13.7485 12.4546 13.7487 12.4958C13.7489 12.5369 13.7377 12.5773 13.7163 12.6125ZM7.25009 8.50001V6.50001C7.25009 6.3011 7.32911 6.11033 7.46976 5.96968C7.61041 5.82902 7.80118 5.75001 8.00009 5.75001C8.199 5.75001 8.38977 5.82902 8.53042 5.96968C8.67107 6.11033 8.75009 6.3011 8.75009 6.50001V8.50001C8.75009 8.69892 8.67107 8.88968 8.53042 9.03034C8.38977 9.17099 8.199 9.25001 8.00009 9.25001C7.80118 9.25001 7.61041 9.17099 7.46976 9.03034C7.32911 8.88968 7.25009 8.69892 7.25009 8.50001ZM9.00009 11C9.00009 11.1978 8.94144 11.3911 8.83156 11.5556C8.72168 11.72 8.5655 11.8482 8.38277 11.9239C8.20005 11.9996 7.99898 12.0194 7.805 11.9808C7.61102 11.9422 7.43284 11.847 7.29298 11.7071C7.15313 11.5673 7.05789 11.3891 7.0193 11.1951C6.98072 11.0011 7.00052 10.8 7.07621 10.6173C7.1519 10.4346 7.28007 10.2784 7.44452 10.1685C7.60897 10.0587 7.80231 10 8.00009 10C8.26531 10 8.51966 10.1054 8.7072 10.2929C8.89473 10.4804 9.00009 10.7348 9.00009 11Z" fill="currentColor"/>
</svg>
