<svg xmlns="http://www.w3.org/2000/svg" width="48" height="48" viewBox="0 0 48 48" fill="none">
<path d="M42 27V39C42 39.3978 41.842 39.7794 41.5607 40.0607C41.2794 40.342 40.8978 40.5 40.5 40.5H7.5C7.10218 40.5 6.72064 40.342 6.43934 40.0607C6.15804 39.7794 6 39.3978 6 39V27C6 26.6022 6.15804 26.2206 6.43934 25.9393C6.72064 25.658 7.10218 25.5 7.5 25.5C7.89782 25.5 8.27936 25.658 8.56066 25.9393C8.84196 26.2206 9 26.6022 9 27V37.5H39V27C39 26.6022 39.158 26.2206 39.4393 25.9393C39.7206 25.658 40.1022 25.5 40.5 25.5C40.8978 25.5 41.2794 25.658 41.5607 25.9393C41.842 26.2206 42 26.6022 42 27ZM17.5613 14.5613L22.5 9.62063V27C22.5 27.3978 22.658 27.7794 22.9393 28.0607C23.2206 28.342 23.6022 28.5 24 28.5C24.3978 28.5 24.7794 28.342 25.0607 28.0607C25.342 27.7794 25.5 27.3978 25.5 27V9.62063L30.4387 14.5613C30.7202 14.8427 31.102 15.0008 31.5 15.0008C31.898 15.0008 32.2798 14.8427 32.5613 14.5613C32.8427 14.2798 33.0008 13.8981 33.0008 13.5C33.0008 13.102 32.8427 12.7202 32.5613 12.4388L25.0613 4.93875C24.9219 4.79929 24.7565 4.68865 24.5744 4.61317C24.3923 4.53768 24.1971 4.49883 24 4.49883C23.8029 4.49883 23.6077 4.53768 23.4256 4.61317C23.2435 4.68865 23.0781 4.79929 22.9387 4.93875L15.4387 12.4388C15.1573 12.7202 14.9992 13.102 14.9992 13.5C14.9992 13.8981 15.1573 14.2798 15.4387 14.5613C15.7202 14.8427 16.102 15.0008 16.5 15.0008C16.898 15.0008 17.2798 14.8427 17.5613 14.5613Z" fill="currentColor"/>
</svg>