<svg width="48" height="48" viewBox="0 0 48 48" fill="none" xmlns="http://www.w3.org/2000/svg">
<path d="M42 27V39C42 39.3978 41.842 39.7793 41.5607 40.0606C41.2794 40.3419 40.8978 40.5 40.5 40.5H7.5C7.10218 40.5 6.72064 40.3419 6.43934 40.0606C6.15804 39.7793 6 39.3978 6 39V27C6 26.6021 6.15804 26.2206 6.43934 25.9393C6.72064 25.658 7.10218 25.5 7.5 25.5C7.89782 25.5 8.27936 25.658 8.56066 25.9393C8.84196 26.2206 9 26.6021 9 27V37.5H39V27C39 26.6021 39.158 26.2206 39.4393 25.9393C39.7206 25.658 40.1022 25.5 40.5 25.5C40.8978 25.5 41.2794 25.658 41.5607 25.9393C41.842 26.2206 42 26.6021 42 27ZM17.5613 14.5612L22.5 9.62058V27C22.5 27.3978 22.658 27.7793 22.9393 28.0606C23.2206 28.3419 23.6022 28.5 24 28.5C24.3978 28.5 24.7794 28.3419 25.0607 28.0606C25.342 27.7793 25.5 27.3978 25.5 27V9.62058L30.4387 14.5612C30.7202 14.8427 31.102 15.0008 31.5 15.0008C31.898 15.0008 32.2798 14.8427 32.5613 14.5612C32.8427 14.2797 33.0008 13.898 33.0008 13.5C33.0008 13.1019 32.8427 12.7202 32.5613 12.4387L25.0613 4.93871C24.9219 4.79924 24.7565 4.68861 24.5744 4.61312C24.3923 4.53763 24.1971 4.49878 24 4.49878C23.8029 4.49878 23.6077 4.53763 23.4256 4.61312C23.2435 4.68861 23.0781 4.79924 22.9387 4.93871L15.4387 12.4387C15.1573 12.7202 14.9992 13.1019 14.9992 13.5C14.9992 13.898 15.1573 14.2797 15.4387 14.5612C15.7202 14.8427 16.102 15.0008 16.5 15.0008C16.898 15.0008 17.2798 14.8427 17.5613 14.5612Z" fill="currentColor"/>
</svg>